<?xml version="1.0" encoding="utf-8"?>
<!-- Generator: Adobe Illustrator 27.1.1, SVG Export Plug-In . SVG Version: 6.00 Build 0)  -->
<svg version="1.1" id="Layer_1" xmlns="http://www.w3.org/2000/svg" xmlns:xlink="http://www.w3.org/1999/xlink" x="0px" y="0px"
	 viewBox="0 0 32 32" style="enable-background:new 0 0 32 32;" xml:space="preserve">
<style type="text/css">
	.st0{fill:#FFFFFF;}
	.st1{fill:#934083;}
	.st2{fill:#4A9443;}
	.st3{fill:#F8971D;}
</style>
<g>
	<g>
		<path class="st1" d="M18.1,30.6c-0.1-0.2,0.4-0.2,0.8-0.4c0.2-0.1,0.3,0.3,0.1,1c0,0.1,0.1,0.1,0.1,0.1c0.6-0.5,0.4-0.9,0.3-1.1
			c0-0.1-0.2-0.3,0.1-0.4c0.3-0.1,0.4-0.4,0.6-0.3c0.2,0.1,0.3,0.5,0.2,1.2c0.5-0.3,0.6-0.8,0.3-1.2c-0.2-0.2-0.4-0.4-0.2-0.6
			c0.2-0.3,0.2-0.5,0.4-0.4c0.3,0.2,0.7,0.3,0.8,0.6c0.1,0.3-0.3,1.3,0.5,0.3c0.1-0.1,0.1-0.3,0.1-0.4c-0.1-0.8-1-0.7-1.2-0.9
			c-0.1-0.1,0.1-0.5,0.5-0.7c0.4-0.2,0.6-0.1,0.8-0.1c0.1,0,0.2,0.1,0.3,0.2c0.1,0.1,0.3,0,0.3-0.1c0-1.3-0.6-1.5-2.9-1.8
			c0.4-0.2,0.7-0.2,1-0.2c1.3-0.1,2,0.4,2.2,0.7c0.3,0.4,0.3,0.9,0.3,1.3c0,0.2,0.2,0.4,0.4,0.2c0.1-0.1,0.2-0.1,0.4-0.2
			c0.7-0.6,0.9-0.9,1-1.1c0.2-0.2,0.5-0.7,0.7-0.9c0.1-0.2,0.3-0.4,0.6-0.6c0.2-0.1,0.3-0.4,0.3-0.6c0-0.1-0.1-0.3-0.2-0.4
			c-0.3-0.3-0.1-0.8-0.5-1c-0.3-0.1-0.4-0.2-0.6-0.5c-0.2-0.3,0.1-0.3,0.4-0.3c0.7,0,1.1,0.3,1.6,0.4c0.2,0,0.3,0.1,0.5,0.3
			c0.1,0.1,0.2,0.1,0.3-0.1c0.6-1.4,0.8-3.2,0.5-5.4c0-0.1,0-0.1-0.1-0.1c-0.2-0.1-0.5-0.2-1.4-0.2c-0.1,0-0.3,0.1-0.4,0.1
			c-0.1,0-0.1-0.1-0.1-0.2c0.3-0.6,0.6-0.8,1-0.7c0.2,0,0.4,0,0.6,0c0.1,0,0.2-0.1,0.1-0.2c-0.3-1.3-0.7-2.4-1.2-3.3
			c0-0.1-0.1-0.1-0.2-0.1c-0.2,0-0.4,0.1-0.6,0.2c-0.4,0.1-0.7-0.1-0.8-0.2c-0.1-0.1,0.2-0.2,0.3-0.2c0.2-0.1,0.2-0.2,0.4-0.2
			c0.2,0,0.3-0.1,0.4-0.1c-2.5-4.2-6.5-5.5-8.1-5.8c-0.1,0-0.1,0.1,0,0.1c5.6,2.6,6.9,7.1,6.9,9.6c0,5.3-2.3,7.1-7.3,9.1
			c-0.1,0-0.1,0.1,0,0.2c0.2,0,0.4,0.1,0.5,0.2c0.1,0.1,0.1,0.1,0.1,0.2c-1.8-0.2-2.4,0.4-2.7,0.4c-1,0.2-2.2,1.7-2.2,2.9
			c0,0.8-0.5,1-0.3,1.7c0,0.3,0,0.6,0.1,0.9c0.1,0.1,0.2,0.2,0.3,0.1c0.3-0.3,0.5-0.2,0.8-0.2c0.3,0,0.6,0.2,0.9,0.5
			c0.1,0.1,0.3,0.1,0.4,0c0.2-0.2,0.4-0.5,0.5-0.6c0.1-0.1,0.2-0.3,0.4-0.3c0.1,0,0.4-0.1,0.4,0c0,0.2-0.1,0.6-0.2,0.7
			c-0.2,0.3,0.1,0.2,0.1,0.2c0.3-0.1,0.4-0.1,0.5-0.3C18.4,31.2,18.3,30.9,18.1,30.6z M14.6,30.5c-0.1,0.1-0.1,0.1-0.2,0.2
			c-0.1,0.1-0.2,0.3-0.2,0.3c0-0.2,0.1-0.4,0.2-0.6c0.1-0.2,0.2-0.4,0.5-0.3C14.8,30.1,14.8,30.3,14.6,30.5z M15.8,30.8
			c-0.1-0.1-0.1-0.1-0.2-0.2c-0.3-0.2-0.4-0.5-0.4-0.5c0.3,0,0.6,0.2,0.7,0.4c0.1,0.2,0.2,0.4,0.3,0.7C16.3,31.2,16,31,15.8,30.8z
			 M19,27.9c0.2,0.2,0.3,0.5,0.3,0.8c0,0.5-0.1,0.9-0.4,0.8c-0.3,0-0.5-0.5-0.6-1c0-0.3,0-0.5,0.1-0.6c-0.7,0.5-0.7,1.4-0.7,1.5
			c-0.5,0-0.8-0.1-1.3,0.2c-0.1,0.1-0.5,0.3-0.5,0.5c0.2-0.6,0.7-1.2,1.4-1.3c0-0.1,0.1-0.2,0.1-0.2c0,0,0.1-0.1,0.1-0.2
			c0,0,0.1-0.1,0.2-0.2c0,0,0.1-0.1,0.1-0.1c0.1-0.1,0.3-0.2,0.4-0.3c0.3-0.1,0.6-0.2,1.2,0.2C19.3,28,19,27.9,19,27.9z"/>
		<path class="st1" d="M19,29.4l-0.1-0.6c-0.1-0.4-0.1-0.5-0.2-0.9C19.2,27.9,19.3,29.2,19,29.4z"/>
	</g>
	<path class="st2" d="M17.5,5.4c0.2-0.5,1-2.2,1.3-2.7c0-0.1,0.1-0.1,0.2-0.1c0.2,0,0.3,0.1,0.3,0.1c0.1,0,0.1,0.1,0,0.2
		c-0.4,0.5-1,1.5-1.3,2.6c0,0.1-0.1,0.1-0.1,0.1c-0.1,0-0.2-0.1-0.4-0.1C17.5,5.5,17.5,5.5,17.5,5.4z"/>
	<path class="st2" d="M18.2,3.8c-0.8-0.2-2.1-0.1-3,0c-0.2-0.2-0.4-0.3-0.4-0.3c1.2-0.1,2.7-0.3,3.5,0.1c-0.4-0.3-1-0.7-1.6-1.1
		c0.1-0.1,0.1-0.1,0.1-0.2c0.1,0.1,1,0.6,1.6,1C18.3,3.5,18.3,3.8,18.2,3.8z"/>
	<path class="st3" d="M15.8,25.2c1-0.6,5.9-2.4,7.4-4.5c1.6-2.1,2-4.3,1.3-7.3c-0.8-3.5-3.8-6.1-7.9-7.8c-0.1,0-0.2,0-0.2,0.2
		c0.9,5-7.5,7.5-10.1,8c-0.2,0-0.4,0.2-0.6,0.4c-0.2,0.4-0.6,1.2-0.7,1.8c-0.1,0.8-0.3,1.5-0.3,2.8c0.1,2.1-0.2,2.9-1.1,5
		c-0.9,2.3-1.1,5.2,1.2,6.2c1.7,0.8,3.6,0.9,5.4,0.6c0.7-0.1,1.6-0.5,2.2-1c0.4-0.4,0.9-1,1.1-1.5C14.2,26.4,15,25.6,15.8,25.2z"/>
	<g>
		<path class="st2" d="M6.5,9.2c0.1,0.5,0.2,0.9,0.2,1.4c0,0.8-0.1,1.6-0.3,2.4c0.5-0.1,1.2-0.3,1.9-0.5c0.1-1.6,0.2-3.2,0.1-4.7
			c0-0.1,0-0.2,0-0.3C7.7,8,7.1,8.6,6.5,9.2z"/>
		<path class="st2" d="M5.8,10.6c0-0.2,0-0.3,0-0.5c-0.9,1.2-1.6,2.5-2.3,3.8c0.7-0.4,1.4-0.6,2.3-0.8C5.8,12.3,5.9,11.3,5.8,10.6z"
			/>
		<path class="st2" d="M6,8.9c0.5-0.6,1-1.2,1.5-1.8C7,7.2,6.5,7.3,5.9,7.5c-0.4,0.5-0.7,1-1,1.5C5.3,9,5.6,8.9,6,8.9z"/>
		<path class="st2" d="M13.4,3.8c0.3-0.1,0.6-0.1,0.9-0.1c-0.6-0.3-1.2-0.4-2-0.3C12.7,3.4,13.1,3.6,13.4,3.8z"/>
		<path class="st2" d="M11.6,5.3c0.5,1.9,0.1,4.3-0.5,6.2c0.9-0.4,1.7-0.9,2.3-1.3c0.2-1.8,0.3-3.8-0.4-5.4
			c-0.3,0.1-0.5,0.2-0.8,0.3C12.1,5.1,11.9,5.2,11.6,5.3z"/>
		<path class="st2" d="M11.1,4.6c0.4-0.2,0.7-0.3,1.1-0.5c-0.5-0.2-1.1-0.3-1.7-0.3C10.1,4,9.7,4.2,9.4,4.4
			C9.9,4.4,10.5,4.4,11.1,4.6z"/>
		<path class="st2" d="M15,4.2c-0.4,0.1-0.8,0.2-1.2,0.3c0.6,1.6,0.6,3.3,0.3,5C15.7,8,15.9,6.6,15.9,6C15.9,5.4,15.6,4.7,15,4.2z"
			/>
		<path class="st2" d="M5.4,9.7C5.3,9.7,5.1,9.8,5,9.8c-0.2,0-0.4,0.1-0.5,0.2c-0.6,1.3-0.9,2.5-1.1,3.5C3.9,12.1,4.6,10.9,5.4,9.7z
			"/>
		<path class="st2" d="M10.9,5.7c-0.4,0.2-0.7,0.4-1.1,0.6C9.5,6.5,9.2,6.6,9,6.8c0.4,1.6,0.2,3.8-0.1,5.4c0.3-0.1,0.6-0.2,1-0.3
			c0.2-0.1,0.4-0.2,0.6-0.2C10.9,9.7,11.2,7.3,10.9,5.7z"/>
		<path class="st2" d="M8.2,5.2C7.6,5.7,7,6.2,6.6,6.7c0.6-0.3,1.3-0.4,1.8-0.4c0.5-0.4,1-0.8,1.6-1.2C9.4,5.1,8.8,5.1,8.2,5.2z"/>
	</g>
	<g>
		<path class="st2" d="M11,0.5c-0.1-0.1-0.2-0.1-0.3-0.2C10,0.4,9.5,0.5,9,0.6C9.7,0.5,10.3,0.5,11,0.5z"/>
		<path class="st2" d="M12.9,1.1C13,1.1,13,1.1,12.9,1.1c-0.4-0.1-0.8-0.2-1.3-0.3c-0.2,0.1-0.3,0.2-0.5,0.2
			c0.3,0.1,0.6,0.3,0.8,0.4C12.3,1.4,12.6,1.3,12.9,1.1z"/>
		<path class="st2" d="M14.3,1c0.1,0,0.2,0.1,0.3,0.1c-0.1-0.2-0.2-0.4-0.4-0.5c-0.4-0.1-0.9-0.1-1.3-0.2c0.2,0.1,0.3,0.2,0.4,0.3
			c0,0,0.1,0.1,0.1,0.1c0.1,0,0.2,0,0.3,0.1C13.9,0.9,14.2,1,14.3,1z"/>
		<path class="st2" d="M15.8,1.3c0.1,0.2,0.2,0.4,0.3,0.6c0.2,0.1,0.3,0.2,0.5,0.4c0.1-0.4-0.1-0.9-1.1-1.3
			C15.6,1,15.7,1.1,15.8,1.3z"/>
		<path class="st2" d="M11,0.9c0,0,0.1,0,0.2-0.1c-0.5,0-0.9,0-1.4,0c-0.1,0-0.2,0-0.4,0c0.5,0,0.9,0.1,1.4,0.2
			C10.9,1,11,0.9,11,0.9z"/>
		<path class="st2" d="M11.7,0.5c0.5,0,1,0.1,1.5,0.2c0,0-0.1-0.1-0.1-0.1c-0.1-0.1-0.2-0.2-0.3-0.3c-0.6,0-1.1,0-1.6,0
			C11.3,0.4,11.5,0.4,11.7,0.5z"/>
		<path class="st2" d="M14.5,1.6c-0.1,0-0.1-0.1-0.2-0.1c-0.1,0-0.2-0.1-0.3-0.1c-0.2-0.1-0.4-0.1-0.6-0.2c-0.4,0.2-0.8,0.4-1.3,0.5
			c0,0,0,0,0.1,0.1c0.3,0.3,0.6,0.5,1,0.6C13.6,2.2,14.1,1.9,14.5,1.6z"/>
		<path class="st2" d="M15.9,2.3C15.9,2.3,15.9,2.2,15.9,2.3c-0.2,0.1-0.5,0.3-0.7,0.4c-0.2,0.1-0.3,0.2-0.5,0.2
			c0.4,0.1,0.7,0.1,0.9,0c0.3,0,0.6-0.2,0.8-0.3c0,0,0,0,0,0C16.3,2.4,16.1,2.3,15.9,2.3z"/>
		<path class="st2" d="M14.7,0.9C14.8,1,14.9,1.1,15,1.2c0.3,0.1,0.5,0.2,0.7,0.4c-0.1-0.3-0.2-0.5-0.4-0.8
			c-0.2-0.1-0.5-0.2-0.8-0.2c0,0-0.1,0-0.1,0C14.5,0.7,14.6,0.8,14.7,0.9z"/>
		<path class="st2" d="M13.3,2.5c0.4,0.2,0.9,0.3,1.3,0.4c0.4-0.3,0.7-0.5,1.1-0.8c-0.3-0.1-0.5-0.2-0.8-0.4
			c-0.3,0.2-0.6,0.3-0.9,0.5C13.8,2.3,13.5,2.4,13.3,2.5z"/>
	</g>
</g>
</svg>
